<svg width="192" height="73" viewBox="0 0 192 73" fill="none" xmlns="http://www.w3.org/2000/svg">
<path d="M71.336 27.216L54.536 66.72H45.704L51.848 53.088L40.952 27.216H50.12L56.312 43.968L62.456 27.216H71.336ZM90.6241 26.928C93.7601 26.928 96.2561 27.952 98.1121 30C100 32.016 100.944 34.8 100.944 38.352V54H92.7841V39.456C92.7841 37.664 92.3201 36.272 91.3921 35.28C90.4641 34.288 89.2161 33.792 87.6481 33.792C86.0801 33.792 84.8321 34.288 83.9041 35.28C82.9761 36.272 82.5121 37.664 82.5121 39.456V54H74.3041V27.216H82.5121V30.768C83.3441 29.584 84.4641 28.656 85.8721 27.984C87.2801 27.28 88.8641 26.928 90.6241 26.928ZM123.016 54L114.856 42.768V54H106.648V18.48H114.856V38.112L122.968 27.216H133.096L121.96 40.656L133.192 54H123.016ZM140.16 54.384C138.72 54.384 137.536 53.968 136.608 53.136C135.712 52.272 135.264 51.216 135.264 49.968C135.264 48.688 135.712 47.616 136.608 46.752C137.536 45.888 138.72 45.456 140.16 45.456C141.568 45.456 142.72 45.888 143.616 46.752C144.544 47.616 145.008 48.688 145.008 49.968C145.008 51.216 144.544 52.272 143.616 53.136C142.72 53.968 141.568 54.384 140.16 54.384ZM153.995 24.432C152.555 24.432 151.371 24.016 150.443 23.184C149.547 22.32 149.099 21.264 149.099 20.016C149.099 18.736 149.547 17.68 150.443 16.848C151.371 15.984 152.555 15.552 153.995 15.552C155.403 15.552 156.555 15.984 157.451 16.848C158.379 17.68 158.843 18.736 158.843 20.016C158.843 21.264 158.379 22.32 157.451 23.184C156.555 24.016 155.403 24.432 153.995 24.432ZM158.075 27.216V54H149.867V27.216H158.075ZM176.215 54.384C173.591 54.384 171.223 53.824 169.111 52.704C167.031 51.584 165.383 49.984 164.167 47.904C162.983 45.824 162.391 43.392 162.391 40.608C162.391 37.856 162.999 35.44 164.215 33.36C165.431 31.248 167.095 29.632 169.207 28.512C171.319 27.392 173.687 26.832 176.311 26.832C178.935 26.832 181.303 27.392 183.415 28.512C185.527 29.632 187.191 31.248 188.407 33.36C189.623 35.44 190.231 37.856 190.231 40.608C190.231 43.36 189.607 45.792 188.359 47.904C187.143 49.984 185.463 51.584 183.319 52.704C181.207 53.824 178.839 54.384 176.215 54.384ZM176.215 47.28C177.783 47.28 179.111 46.704 180.199 45.552C181.319 44.4 181.879 42.752 181.879 40.608C181.879 38.464 181.335 36.816 180.247 35.664C179.191 34.512 177.879 33.936 176.311 33.936C174.711 33.936 173.383 34.512 172.327 35.664C171.271 36.784 170.743 38.432 170.743 40.608C170.743 42.752 171.255 44.4 172.279 45.552C173.335 46.704 174.647 47.28 176.215 47.28Z" fill="black"/>
<path d="M71.336 27.216L72.2562 27.6074L72.8479 26.216H71.336V27.216ZM54.536 66.72V67.72H55.1974L55.4562 67.1114L54.536 66.72ZM45.704 66.72L44.7923 66.3091L44.1564 67.72H45.704V66.72ZM51.848 53.088L52.7597 53.4989L52.9388 53.1015L52.7696 52.6999L51.848 53.088ZM40.952 27.216V26.216H39.4458L40.0304 27.6041L40.952 27.216ZM50.12 27.216L51.058 26.8693L50.8165 26.216H50.12V27.216ZM56.312 43.968L55.374 44.3147L56.3157 46.8622L57.2508 44.3123L56.312 43.968ZM62.456 27.216V26.216H61.7576L61.5172 26.8717L62.456 27.216ZM70.4158 26.8246L53.6158 66.3286L55.4562 67.1114L72.2562 27.6074L70.4158 26.8246ZM54.536 65.72H45.704V67.72H54.536V65.72ZM46.6157 67.1309L52.7597 53.4989L50.9363 52.6771L44.7923 66.3091L46.6157 67.1309ZM52.7696 52.6999L41.8736 26.8279L40.0304 27.6041L50.9264 53.4761L52.7696 52.6999ZM40.952 28.216H50.12V26.216H40.952V28.216ZM49.182 27.5627L55.374 44.3147L57.25 43.6213L51.058 26.8693L49.182 27.5627ZM57.2508 44.3123L63.3948 27.5603L61.5172 26.8717L55.3732 43.6237L57.2508 44.3123ZM62.456 28.216H71.336V26.216H62.456V28.216ZM98.1121 30L97.3711 30.6715L97.3766 30.6776L97.3822 30.6836L98.1121 30ZM100.944 54V55H101.944V54H100.944ZM92.7841 54H91.7841V55H92.7841V54ZM91.3921 35.28L90.6619 35.9632L90.6619 35.9632L91.3921 35.28ZM83.9041 35.28L84.6344 35.9632L84.6344 35.9632L83.9041 35.28ZM82.5121 54V55H83.5121V54H82.5121ZM74.3041 54H73.3041V55H74.3041V54ZM74.3041 27.216V26.216H73.3041V27.216H74.3041ZM82.5121 27.216H83.5121V26.216H82.5121V27.216ZM82.5121 30.768H81.5121V33.9304L83.3303 31.3429L82.5121 30.768ZM85.8721 27.984L86.3029 28.8865L86.3111 28.8825L86.3193 28.8784L85.8721 27.984ZM90.6241 27.928C93.5199 27.928 95.7312 28.8619 97.3711 30.6715L98.8531 29.3285C96.781 27.0421 94.0004 25.928 90.6241 25.928V27.928ZM97.3822 30.6836C99.0513 32.4658 99.9441 34.9787 99.9441 38.352H101.944C101.944 34.6213 100.949 31.5662 98.842 29.3164L97.3822 30.6836ZM99.9441 38.352V54H101.944V38.352H99.9441ZM100.944 53H92.7841V55H100.944V53ZM93.7841 54V39.456H91.7841V54H93.7841ZM93.7841 39.456C93.7841 37.4934 93.2732 35.827 92.1224 34.5968L90.6619 35.9632C91.3671 36.717 91.7841 37.8346 91.7841 39.456H93.7841ZM92.1224 34.5968C90.9756 33.3709 89.4461 32.792 87.6481 32.792V34.792C88.9861 34.792 89.9527 35.2051 90.6619 35.9632L92.1224 34.5968ZM87.6481 32.792C85.8501 32.792 84.3207 33.3709 83.1739 34.5968L84.6344 35.9632C85.3436 35.2051 86.3101 34.792 87.6481 34.792V32.792ZM83.1739 34.5968C82.0231 35.827 81.5121 37.4934 81.5121 39.456H83.5121C83.5121 37.8346 83.9292 36.717 84.6344 35.9632L83.1739 34.5968ZM81.5121 39.456V54H83.5121V39.456H81.5121ZM82.5121 53H74.3041V55H82.5121V53ZM75.3041 54V27.216H73.3041V54H75.3041ZM74.3041 28.216H82.5121V26.216H74.3041V28.216ZM81.5121 27.216V30.768H83.5121V27.216H81.5121ZM83.3303 31.3429C84.0558 30.3105 85.0375 29.4904 86.3029 28.8865L85.4414 27.0815C83.8907 27.8216 82.6324 28.8575 81.6939 30.1931L83.3303 31.3429ZM86.3193 28.8784C87.5728 28.2517 89.0008 27.928 90.6241 27.928V25.928C88.7274 25.928 86.9874 26.3083 85.4249 27.0896L86.3193 28.8784ZM123.016 54L122.207 54.5878L122.506 55H123.016V54ZM114.856 42.768L115.665 42.1802L113.856 39.6902V42.768H114.856ZM114.856 54V55H115.856V54H114.856ZM106.648 54H105.648V55H106.648V54ZM106.648 18.48V17.48H105.648V18.48H106.648ZM114.856 18.48H115.856V17.48H114.856V18.48ZM114.856 38.112H113.856V41.1298L115.658 38.7092L114.856 38.112ZM122.968 27.216V26.216H122.466L122.166 26.6188L122.968 27.216ZM133.096 27.216L133.866 27.854L135.223 26.216H133.096V27.216ZM121.96 40.656L121.19 40.018L120.657 40.661L121.195 41.3L121.96 40.656ZM133.192 54V55H135.341L133.957 53.356L133.192 54ZM123.825 53.4122L115.665 42.1802L114.047 43.3558L122.207 54.5878L123.825 53.4122ZM113.856 42.768V54H115.856V42.768H113.856ZM114.856 53H106.648V55H114.856V53ZM107.648 54V18.48H105.648V54H107.648ZM106.648 19.48H114.856V17.48H106.648V19.48ZM113.856 18.48V38.112H115.856V18.48H113.856ZM115.658 38.7092L123.77 27.8132L122.166 26.6188L114.054 37.5148L115.658 38.7092ZM122.968 28.216H133.096V26.216H122.968V28.216ZM132.326 26.578L121.19 40.018L122.73 41.294L133.866 27.854L132.326 26.578ZM121.195 41.3L132.427 54.644L133.957 53.356L122.725 40.012L121.195 41.3ZM133.192 53H123.016V55H133.192V53ZM136.608 53.136L135.914 53.8558L135.927 53.8684L135.94 53.8806L136.608 53.136ZM136.608 46.752L135.926 46.0201L135.92 46.0261L135.914 46.0322L136.608 46.752ZM143.616 46.752L142.922 47.4718L142.928 47.4779L142.934 47.4839L143.616 46.752ZM143.616 53.136L144.296 53.8688L144.297 53.8679L143.616 53.136ZM140.16 53.384C138.925 53.384 137.992 53.0336 137.275 52.3914L135.94 53.8806C137.08 54.9024 138.514 55.384 140.16 55.384V53.384ZM137.302 52.4162C136.602 51.7412 136.264 50.9453 136.264 49.968H134.264C134.264 51.4867 134.822 52.8028 135.914 53.8558L137.302 52.4162ZM136.264 49.968C136.264 48.9509 136.607 48.1414 137.302 47.4718L135.914 46.0322C134.816 47.0906 134.264 48.4251 134.264 49.968H136.264ZM137.289 47.4839C138.007 46.8158 138.936 46.456 140.16 46.456V44.456C138.504 44.456 137.065 44.9602 135.926 46.0201L137.289 47.4839ZM140.16 46.456C141.346 46.456 142.237 46.8116 142.922 47.4718L144.31 46.0322C143.203 44.9644 141.79 44.456 140.16 44.456V46.456ZM142.934 47.4839C143.657 48.1567 144.008 48.9626 144.008 49.968H146.008C146.008 48.4134 145.431 47.0753 144.297 46.0201L142.934 47.4839ZM144.008 49.968C144.008 50.9334 143.663 51.7258 142.934 52.4041L144.297 53.8679C145.425 52.8182 146.008 51.4986 146.008 49.968H144.008ZM142.935 52.4032C142.252 53.0375 141.356 53.384 140.16 53.384V55.384C141.779 55.384 143.187 54.8985 144.296 53.8688L142.935 52.4032ZM150.443 23.184L149.748 23.9038L149.762 23.9164L149.775 23.9286L150.443 23.184ZM150.443 16.848L151.123 17.5808L151.124 17.5799L150.443 16.848ZM157.451 16.848L156.756 17.5678L156.77 17.5804L156.783 17.5926L157.451 16.848ZM157.451 23.184L158.131 23.9168L158.132 23.9159L157.451 23.184ZM158.075 27.216H159.075V26.216H158.075V27.216ZM158.075 54V55H159.075V54H158.075ZM149.867 54H148.867V55H149.867V54ZM149.867 27.216V26.216H148.867V27.216H149.867ZM153.995 23.432C152.76 23.432 151.826 23.0816 151.11 22.4394L149.775 23.9286C150.915 24.9504 152.349 25.432 153.995 25.432V23.432ZM151.137 22.4642C150.437 21.7892 150.099 20.9933 150.099 20.016H148.099C148.099 21.5347 148.656 22.8508 149.748 23.9038L151.137 22.4642ZM150.099 20.016C150.099 18.9994 150.441 18.2138 151.123 17.5808L149.762 16.1152C148.652 17.1462 148.099 18.4726 148.099 20.016H150.099ZM151.124 17.5799C151.842 16.9118 152.771 16.552 153.995 16.552V14.552C152.339 14.552 150.9 15.0562 149.761 16.1161L151.124 17.5799ZM153.995 16.552C155.181 16.552 156.072 16.9076 156.756 17.5678L158.145 16.1282C157.037 15.0604 155.625 14.552 153.995 14.552V16.552ZM156.783 17.5926C157.493 18.2291 157.843 19.0114 157.843 20.016H159.843C159.843 18.4606 159.264 17.1309 158.118 16.1034L156.783 17.5926ZM157.843 20.016C157.843 20.9814 157.498 21.7738 156.769 22.4521L158.132 23.9159C159.26 22.8662 159.843 21.5466 159.843 20.016H157.843ZM156.77 22.4512C156.087 23.0855 155.191 23.432 153.995 23.432V25.432C155.614 25.432 157.022 24.9465 158.131 23.9168L156.77 22.4512ZM157.075 27.216V54H159.075V27.216H157.075ZM158.075 53H149.867V55H158.075V53ZM150.867 54V27.216H148.867V54H150.867ZM149.867 28.216H158.075V26.216H149.867V28.216ZM169.111 52.704L168.637 53.5845L168.642 53.5875L169.111 52.704ZM164.167 47.904L163.298 48.3987L163.304 48.4087L164.167 47.904ZM164.215 33.36L165.078 33.8647L165.081 33.859L164.215 33.36ZM169.207 28.512L169.675 29.3955L169.675 29.3955L169.207 28.512ZM183.415 28.512L182.946 29.3955L182.946 29.3955L183.415 28.512ZM188.407 33.36L187.54 33.859L187.544 33.8647L188.407 33.36ZM188.359 47.904L187.498 47.3953L187.496 47.3993L188.359 47.904ZM183.319 52.704L182.856 51.8176L182.85 51.8205L183.319 52.704ZM180.199 45.552L179.482 44.8549L179.477 44.8601L179.472 44.8654L180.199 45.552ZM180.247 35.664L179.51 36.3397L179.515 36.3452L179.52 36.3506L180.247 35.664ZM172.327 35.664L173.055 36.3501L173.064 36.3397L172.327 35.664ZM172.279 45.552L171.531 46.2164L171.537 46.2221L171.542 46.2277L172.279 45.552ZM176.215 53.384C173.738 53.384 171.533 52.8567 169.579 51.8205L168.642 53.5875C170.912 54.7913 173.444 55.384 176.215 55.384V53.384ZM169.585 51.8235C167.67 50.7925 166.155 49.324 165.03 47.3993L163.304 48.4087C164.61 50.644 166.392 52.3755 168.637 53.5845L169.585 51.8235ZM165.036 47.4093C163.951 45.5031 163.391 43.2471 163.391 40.608H161.391C161.391 43.5369 162.015 46.1449 163.298 48.3987L165.036 47.4093ZM163.391 40.608C163.391 38.0077 163.964 35.7708 165.078 33.8647L163.352 32.8553C162.034 35.1092 161.391 37.7043 161.391 40.608H163.391ZM165.081 33.859C166.206 31.9067 167.733 30.4255 169.675 29.3955L168.738 27.6285C166.457 28.8385 164.656 30.5893 163.348 32.861L165.081 33.859ZM169.675 29.3955C171.629 28.3593 173.834 27.832 176.311 27.832V25.832C173.54 25.832 171.008 26.4247 168.738 27.6285L169.675 29.3955ZM176.311 27.832C178.788 27.832 180.992 28.3593 182.946 29.3955L183.883 27.6285C181.613 26.4247 179.082 25.832 176.311 25.832V27.832ZM182.946 29.3955C184.889 30.4255 186.416 31.9067 187.54 33.859L189.273 32.861C187.966 30.5893 186.165 28.8385 183.883 27.6285L182.946 29.3955ZM187.544 33.8647C188.658 35.7708 189.231 38.0077 189.231 40.608H191.231C191.231 37.7043 190.588 35.1092 189.27 32.8553L187.544 33.8647ZM189.231 40.608C189.231 43.2033 188.644 45.4555 187.498 47.3953L189.22 48.4127C190.57 46.1285 191.231 43.5167 191.231 40.608H189.231ZM187.496 47.3993C186.375 49.3163 184.834 50.7843 182.856 51.8177L183.782 53.5903C186.092 52.3837 187.911 50.6517 189.222 48.4087L187.496 47.3993ZM182.85 51.8205C180.896 52.8567 178.692 53.384 176.215 53.384V55.384C178.986 55.384 181.517 54.7913 183.787 53.5875L182.85 51.8205ZM176.215 48.28C178.061 48.28 179.651 47.5882 180.926 46.2386L179.472 44.8654C178.571 45.8198 177.504 46.28 176.215 46.28V48.28ZM180.916 46.2491C182.271 44.8548 182.879 42.9228 182.879 40.608H180.879C180.879 42.5812 180.366 43.9452 179.482 44.8549L180.916 46.2491ZM182.879 40.608C182.879 38.3005 182.291 36.3725 180.974 34.9774L179.52 36.3506C180.378 37.2595 180.879 38.6275 180.879 40.608H182.879ZM180.984 34.9883C179.738 33.6289 178.158 32.936 176.311 32.936V34.936C177.6 34.936 178.644 35.3951 179.51 36.3397L180.984 34.9883ZM176.311 32.936C174.438 32.936 172.84 33.6241 171.59 34.9883L173.064 36.3397C173.926 35.3999 174.984 34.936 176.311 34.936V32.936ZM171.599 34.978C170.307 36.3484 169.743 38.2827 169.743 40.608H171.743C171.743 38.5813 172.235 37.2196 173.054 36.35L171.599 34.978ZM169.743 40.608C169.743 42.9012 170.291 44.8206 171.531 46.2164L173.026 44.8876C172.219 43.9794 171.743 42.6028 171.743 40.608H169.743ZM171.542 46.2277C172.788 47.5871 174.368 48.28 176.215 48.28V46.28C174.926 46.28 173.882 45.8209 173.016 44.8763L171.542 46.2277Z" fill="white"/>
<path d="M1.5 21.5H38.5V58.5H1.5V21.5Z" stroke="black" stroke-width="3"/>
<path d="M6.344 39.608C6.344 36.824 6.904 34.392 8.024 32.312C9.176 30.232 10.76 28.632 12.776 27.512C14.824 26.392 17.16 25.832 19.784 25.832C23.144 25.832 25.944 26.712 28.184 28.472C30.456 30.232 31.944 32.712 32.648 35.912H23.912C23.176 33.864 21.752 32.84 19.64 32.84C18.136 32.84 16.936 33.432 16.04 34.616C15.144 35.768 14.696 37.432 14.696 39.608C14.696 41.784 15.144 43.464 16.04 44.648C16.936 45.8 18.136 46.376 19.64 46.376C21.752 46.376 23.176 45.352 23.912 43.304H32.648C31.944 46.44 30.456 48.904 28.184 50.696C25.912 52.488 23.112 53.384 19.784 53.384C17.16 53.384 14.824 52.824 12.776 51.704C10.76 50.584 9.176 48.984 8.024 46.904C6.904 44.824 6.344 42.392 6.344 39.608Z" fill="black"/>
<path d="M8.024 32.312L7.14915 31.8275L7.14353 31.8379L8.024 32.312ZM12.776 27.512L12.2962 26.6346L12.2904 26.6378L12.776 27.512ZM28.184 28.472L27.5662 29.2583L27.5716 29.2625L28.184 28.472ZM32.648 35.912V36.912H33.8919L33.6246 35.6971L32.648 35.912ZM23.912 35.912L22.9709 36.2502L23.2088 36.912H23.912V35.912ZM16.04 34.616L16.8294 35.23L16.8374 35.2194L16.04 34.616ZM16.04 44.648L15.2425 45.2515L15.2506 45.2619L16.04 44.648ZM23.912 43.304V42.304H23.2088L22.9709 42.9658L23.912 43.304ZM32.648 43.304L33.6237 43.523L33.8974 42.304H32.648V43.304ZM28.184 50.696L27.5647 49.9108L27.5647 49.9108L28.184 50.696ZM12.776 51.704L12.2903 52.5782L12.2962 52.5814L12.776 51.704ZM8.024 46.904L7.14347 47.3781L7.14921 47.3885L8.024 46.904ZM7.344 39.608C7.344 36.9599 7.87584 34.6964 8.90447 32.7861L7.14353 31.8379C5.93216 34.0876 5.344 36.6881 5.344 39.608H7.344ZM8.89879 32.7965C9.96306 30.8749 11.4145 29.4123 13.2616 28.3862L12.2904 26.6378C10.1055 27.8517 8.38894 29.5891 7.14921 31.8275L8.89879 32.7965ZM13.2558 28.3894C15.1392 27.3594 17.3065 26.832 19.784 26.832V24.832C17.0135 24.832 14.5088 25.4246 12.2962 26.6346L13.2558 28.3894ZM19.784 26.832C22.9618 26.832 25.5326 27.6605 27.5662 29.2583L28.8018 27.6857C26.3554 25.7635 23.3262 24.832 19.784 24.832V26.832ZM27.5716 29.2625C29.6328 30.8593 31.0102 33.1216 31.6714 36.1269L33.6246 35.6971C32.8778 32.3024 31.2792 29.6047 28.7964 27.6814L27.5716 29.2625ZM32.648 34.912H23.912V36.912H32.648V34.912ZM24.8531 35.5738C24.4332 34.4056 23.7879 33.452 22.8758 32.7961C21.9614 32.1385 20.8618 31.84 19.64 31.84V33.84C20.5302 33.84 21.1986 34.0535 21.7082 34.4199C22.2201 34.788 22.6548 35.3704 22.9709 36.2502L24.8531 35.5738ZM19.64 31.84C17.8275 31.84 16.3305 32.575 15.2426 34.0126L16.8374 35.2194C17.5415 34.289 18.4445 33.84 19.64 33.84V31.84ZM15.2506 34.0021C14.1655 35.3973 13.696 37.3141 13.696 39.608H15.696C15.696 37.5499 16.1225 36.1387 16.8294 35.2299L15.2506 34.0021ZM13.696 39.608C13.696 41.9045 14.1665 43.8295 15.2426 45.2514L16.8374 44.0446C16.1215 43.0985 15.696 41.6635 15.696 39.608H13.696ZM15.2506 45.2619C16.3428 46.6661 17.8384 47.376 19.64 47.376V45.376C18.4336 45.376 17.5292 44.9339 16.8294 44.0341L15.2506 45.2619ZM19.64 47.376C20.8618 47.376 21.9614 47.0775 22.8758 46.4199C23.7879 45.764 24.4332 44.8104 24.8531 43.6422L22.9709 42.9658C22.6548 43.8456 22.2201 44.428 21.7082 44.7961C21.1986 45.1625 20.5302 45.376 19.64 45.376V47.376ZM23.912 44.304H32.648V42.304H23.912V44.304ZM31.6723 43.085C31.0127 46.0233 29.6363 48.2769 27.5647 49.9108L28.8033 51.4812C31.2757 49.5311 32.8753 46.8567 33.6237 43.523L31.6723 43.085ZM27.5647 49.9108C25.495 51.5433 22.9227 52.384 19.784 52.384V54.384C23.3013 54.384 26.329 53.4327 28.8033 51.4812L27.5647 49.9108ZM19.784 52.384C17.3065 52.384 15.1392 51.8566 13.2558 50.8266L12.2962 52.5814C14.5088 53.7914 17.0135 54.384 19.784 54.384V52.384ZM13.2616 50.8298C11.4145 49.8037 9.96306 48.3411 8.89879 46.4195L7.14921 47.3885C8.38894 49.6269 10.1055 51.3643 12.2904 52.5782L13.2616 50.8298ZM8.90447 46.4299C7.87584 44.5196 7.344 42.2561 7.344 39.608H5.344C5.344 42.5279 5.93216 45.1284 7.14353 47.3781L8.90447 46.4299Z" fill="white"/>
</svg>
