<svg width="25" height="25" viewBox="0 0 25 25" fill="none" xmlns="http://www.w3.org/2000/svg">
<path d="M16.1176 8.05881C17.7089 8.05881 19.2351 8.69095 20.3603 9.81617C21.4855 10.9414 22.1176 12.4675 22.1176 14.0588V21.0588H18.1176V14.0588C18.1176 13.5284 17.9069 13.0197 17.5319 12.6446C17.1568 12.2695 16.6481 12.0588 16.1176 12.0588C15.5872 12.0588 15.0785 12.2695 14.7034 12.6446C14.3284 13.0197 14.1176 13.5284 14.1176 14.0588V21.0588H10.1176V14.0588C10.1176 12.4675 10.7498 10.9414 11.875 9.81617C13.0002 8.69095 14.5263 8.05881 16.1176 8.05881V8.05881Z" stroke="white" stroke-width="2" stroke-linecap="round" stroke-linejoin="round"/>
<path d="M6.11765 9.05881H2.11765V21.0588H6.11765V9.05881Z" stroke="white" stroke-width="2" stroke-linecap="round" stroke-linejoin="round"/>
<path d="M4.11765 6.05881C5.22221 6.05881 6.11765 5.16338 6.11765 4.05881C6.11765 2.95424 5.22221 2.05881 4.11765 2.05881C3.01308 2.05881 2.11765 2.95424 2.11765 4.05881C2.11765 5.16338 3.01308 6.05881 4.11765 6.05881Z" stroke="white" stroke-width="2" stroke-linecap="round" stroke-linejoin="round"/>
</svg>
