<svg width="25" height="25" viewBox="0 0 25 25" fill="none" xmlns="http://www.w3.org/2000/svg">
<g clip-path="url(#clip0_302_15)">
<path d="M23.1176 3.05879C22.16 3.73427 21.0998 4.2509 19.9776 4.58879C19.3754 3.8963 18.575 3.40548 17.6847 3.18272C16.7944 2.95995 15.8571 3.01599 14.9997 3.34325C14.1423 3.6705 13.4061 4.25319 12.8906 5.01251C12.3752 5.77182 12.1053 6.67113 12.1176 7.58879V8.58879C10.3603 8.63436 8.61892 8.24461 7.04865 7.45424C5.47839 6.66387 4.12796 5.49743 3.11765 4.05879C3.11765 4.05879 -0.882355 13.0588 8.11765 17.0588C6.05817 18.4568 3.6048 19.1577 1.11765 19.0588C10.1176 24.0588 21.1176 19.0588 21.1176 7.55879C21.1167 7.28025 21.0899 7.00239 21.0376 6.72879C22.0582 5.72229 22.7785 4.45151 23.1176 3.05879V3.05879Z" stroke="white" stroke-width="2" stroke-linecap="round" stroke-linejoin="round"/>
</g>
<defs>
<clipPath id="clip0_302_15">
<rect width="24" height="24" fill="white" transform="translate(0.117645 0.0588074)"/>
</clipPath>
</defs>
</svg>
