<svg width="25" height="25" viewBox="0 0 25 25" fill="none" xmlns="http://www.w3.org/2000/svg">
<g clip-path="url(#clip0_302_17)">
<path d="M22.6576 6.47881C22.5388 6.00422 22.2969 5.56938 21.9563 5.21821C21.6157 4.86705 21.1884 4.61199 20.7176 4.47881C18.9976 4.05881 12.1176 4.05881 12.1176 4.05881C12.1176 4.05881 5.23764 4.05881 3.51764 4.51881C3.04688 4.65199 2.61961 4.90705 2.27898 5.25821C1.93835 5.60938 1.69643 6.04422 1.57764 6.51881C1.26285 8.26436 1.10887 10.0351 1.11764 11.8088C1.10642 13.5959 1.2604 15.3801 1.57764 17.1388C1.7086 17.5987 1.95594 18.017 2.29578 18.3533C2.63562 18.6896 3.05646 18.9326 3.51764 19.0588C5.23764 19.5188 12.1176 19.5188 12.1176 19.5188C12.1176 19.5188 18.9976 19.5188 20.7176 19.0588C21.1884 18.9256 21.6157 18.6706 21.9563 18.3194C22.2969 17.9682 22.5388 17.5334 22.6576 17.0588C22.97 15.3264 23.124 13.5691 23.1176 11.8088C23.1289 10.0218 22.9749 8.23751 22.6576 6.47881V6.47881Z" stroke="white" stroke-width="2" stroke-linecap="round" stroke-linejoin="round"/>
<path d="M9.86765 15.0788L15.6176 11.8088L9.86765 8.53882V15.0788Z" stroke="white" stroke-width="2" stroke-linecap="round" stroke-linejoin="round"/>
</g>
<defs>
<clipPath id="clip0_302_17">
<rect width="24" height="24" fill="white" transform="translate(0.117645 0.0588074)"/>
</clipPath>
</defs>
</svg>
