<svg width="192" height="73" viewBox="0 0 192 73" fill="none" xmlns="http://www.w3.org/2000/svg">
<path d="M71.336 27.216L54.536 66.72H45.704L51.848 53.088L40.952 27.216H50.12L56.312 43.968L62.456 27.216H71.336ZM90.6241 26.928C93.7601 26.928 96.2561 27.952 98.1121 30C100 32.016 100.944 34.8 100.944 38.352V54H92.7841V39.456C92.7841 37.664 92.3201 36.272 91.3921 35.28C90.4641 34.288 89.2161 33.792 87.6481 33.792C86.0801 33.792 84.8321 34.288 83.9041 35.28C82.9761 36.272 82.5121 37.664 82.5121 39.456V54H74.3041V27.216H82.5121V30.768C83.3441 29.584 84.4641 28.656 85.8721 27.984C87.2801 27.28 88.8641 26.928 90.6241 26.928ZM123.016 54L114.856 42.768V54H106.648V18.48H114.856V38.112L122.968 27.216H133.096L121.96 40.656L133.192 54H123.016ZM140.16 54.384C138.72 54.384 137.536 53.968 136.608 53.136C135.712 52.272 135.264 51.216 135.264 49.968C135.264 48.688 135.712 47.616 136.608 46.752C137.536 45.888 138.72 45.456 140.16 45.456C141.568 45.456 142.72 45.888 143.616 46.752C144.544 47.616 145.008 48.688 145.008 49.968C145.008 51.216 144.544 52.272 143.616 53.136C142.72 53.968 141.568 54.384 140.16 54.384ZM153.995 24.432C152.555 24.432 151.371 24.016 150.443 23.184C149.547 22.32 149.099 21.264 149.099 20.016C149.099 18.736 149.547 17.68 150.443 16.848C151.371 15.984 152.555 15.552 153.995 15.552C155.403 15.552 156.555 15.984 157.451 16.848C158.379 17.68 158.843 18.736 158.843 20.016C158.843 21.264 158.379 22.32 157.451 23.184C156.555 24.016 155.403 24.432 153.995 24.432ZM158.075 27.216V54H149.867V27.216H158.075ZM176.215 54.384C173.591 54.384 171.223 53.824 169.111 52.704C167.031 51.584 165.383 49.984 164.167 47.904C162.983 45.824 162.391 43.392 162.391 40.608C162.391 37.856 162.999 35.44 164.215 33.36C165.431 31.248 167.095 29.632 169.207 28.512C171.319 27.392 173.687 26.832 176.311 26.832C178.935 26.832 181.303 27.392 183.415 28.512C185.527 29.632 187.191 31.248 188.407 33.36C189.623 35.44 190.231 37.856 190.231 40.608C190.231 43.36 189.607 45.792 188.359 47.904C187.143 49.984 185.463 51.584 183.319 52.704C181.207 53.824 178.839 54.384 176.215 54.384ZM176.215 47.28C177.783 47.28 179.111 46.704 180.199 45.552C181.319 44.4 181.879 42.752 181.879 40.608C181.879 38.464 181.335 36.816 180.247 35.664C179.191 34.512 177.879 33.936 176.311 33.936C174.711 33.936 173.383 34.512 172.327 35.664C171.271 36.784 170.743 38.432 170.743 40.608C170.743 42.752 171.255 44.4 172.279 45.552C173.335 46.704 174.647 47.28 176.215 47.28Z" fill="white"/>
<path d="M1.5 21.5H38.5V58.5H1.5V21.5Z" stroke="white" stroke-width="3"/>
<path d="M6.344 39.608C6.344 36.824 6.904 34.392 8.024 32.312C9.176 30.232 10.76 28.632 12.776 27.512C14.824 26.392 17.16 25.832 19.784 25.832C23.144 25.832 25.944 26.712 28.184 28.472C30.456 30.232 31.944 32.712 32.648 35.912H23.912C23.176 33.864 21.752 32.84 19.64 32.84C18.136 32.84 16.936 33.432 16.04 34.616C15.144 35.768 14.696 37.432 14.696 39.608C14.696 41.784 15.144 43.464 16.04 44.648C16.936 45.8 18.136 46.376 19.64 46.376C21.752 46.376 23.176 45.352 23.912 43.304H32.648C31.944 46.44 30.456 48.904 28.184 50.696C25.912 52.488 23.112 53.384 19.784 53.384C17.16 53.384 14.824 52.824 12.776 51.704C10.76 50.584 9.176 48.984 8.024 46.904C6.904 44.824 6.344 42.392 6.344 39.608Z" fill="white"/>
</svg>
